<svg width="24" height="24" viewBox="0 0 24 24" fill="none" xmlns="http://www.w3.org/2000/svg">
<g clip-path="url(#clip0_2_30)">
<path d="M3 19H3.01" stroke="#1E1D4E" stroke-width="1.5" stroke-linecap="round" stroke-linejoin="round"/>
<path d="M7 19C7 17.9391 6.57857 16.9217 5.82843 16.1716C5.07828 15.4214 4.06087 15 3 15" stroke="#1E1D4E" stroke-width="1.5" stroke-linecap="round" stroke-linejoin="round"/>
<path d="M11 19C11 16.8783 10.1571 14.8434 8.65685 13.3431C7.15656 11.8429 5.12173 11 3 11" stroke="#1E1D4E" stroke-width="1.5" stroke-linecap="round" stroke-linejoin="round"/>
<path d="M15 19H18C18.7957 19 19.5587 18.6839 20.1213 18.1213C20.6839 17.5587 21 16.7957 21 16V8C21 7.20435 20.6839 6.44129 20.1213 5.87868C19.5587 5.31607 18.7957 5 18 5H6.00001C5.38449 5.00584 4.78567 5.20088 4.28477 5.55866C3.78388 5.91644 3.40517 6.41965 3.20001 7" stroke="#1E1D4E" stroke-width="1.5" stroke-linecap="round" stroke-linejoin="round"/>
</g>
<defs>
<clipPath id="clip0_2_30">
<rect width="24" height="24" fill="white"/>
</clipPath>
</defs>
</svg>
