<svg width="24" height="22" viewBox="0 0 24 22" fill="none" xmlns="http://www.w3.org/2000/svg">
<g filter="url(#filter0_d_2_11)">
<path d="M15 5L8.49999 11.5C8.10217 11.8978 7.87867 12.4374 7.87867 13C7.87867 13.5626 8.10217 14.1022 8.49999 14.5C8.89782 14.8978 9.43738 15.1213 9.99999 15.1213C10.5626 15.1213 11.1022 14.8978 11.5 14.5L18 8C18.7956 7.20435 19.2426 6.12522 19.2426 5C19.2426 3.87478 18.7956 2.79565 18 2C17.2043 1.20435 16.1252 0.757362 15 0.757362C13.8748 0.757362 12.7956 1.20435 12 2L5.49999 8.5C4.30652 9.69348 3.63603 11.3122 3.63603 13C3.63603 14.6878 4.30652 16.3065 5.49999 17.5C6.69347 18.6935 8.31217 19.364 9.99999 19.364C11.6878 19.364 13.3065 18.6935 14.5 17.5L21 11" stroke="#1E1D4E" stroke-width="1.5" stroke-linecap="round" stroke-linejoin="round" shape-rendering="crispEdges"/>
</g>
<defs>
<filter id="filter0_d_2_11" x="-1.11397" y="0.00736237" width="26.864" height="28.1066" filterUnits="userSpaceOnUse" color-interpolation-filters="sRGB">
<feFlood flood-opacity="0" result="BackgroundImageFix"/>
<feColorMatrix in="SourceAlpha" type="matrix" values="0 0 0 0 0 0 0 0 0 0 0 0 0 0 0 0 0 0 127 0" result="hardAlpha"/>
<feOffset dy="4"/>
<feGaussianBlur stdDeviation="2"/>
<feComposite in2="hardAlpha" operator="out"/>
<feColorMatrix type="matrix" values="0 0 0 0 0 0 0 0 0 0 0 0 0 0 0 0 0 0 0.25 0"/>
<feBlend mode="normal" in2="BackgroundImageFix" result="effect1_dropShadow_2_11"/>
<feBlend mode="normal" in="SourceGraphic" in2="effect1_dropShadow_2_11" result="shape"/>
</filter>
</defs>
</svg>
